<svg xmlns="http://www.w3.org/2000/svg" version="1.1" xmlns:xlink="http://www.w3.org/1999/xlink" xmlns:svgjs="http://svgjs.dev/svgjs" width="1500" height="1500" viewBox="0 0 1500 1500"><rect width="1500" height="1500" fill="#ffe9d1"></rect><g transform="matrix(0.6666666666666666,0,0,0.6666666666666666,248.8395102040816,242.36774193548388)"><svg viewBox="0 0 245 248" data-background-color="#ffe9d1" preserveAspectRatio="xMidYMid meet" height="1518" width="1500" xmlns="http://www.w3.org/2000/svg" xmlns:xlink="http://www.w3.org/1999/xlink"><g id="tight-bounds" transform="matrix(1,0,0,1,0.2843200000000081,0.4000000000000057)"><svg viewBox="0 0 244.43135999999998 247.2" height="247.2" width="244.43135999999998"><g><svg></svg></g><g><svg viewBox="0 0 244.43135999999998 247.2" height="247.2" width="244.43135999999998"><g transform="matrix(1,0,0,1,0,47.914020450836176)"><svg viewBox="0 0 244.43135999999998 151.37195909832764" height="151.37195909832764" width="244.43135999999998"><g><svg viewBox="0 0 244.43135999999998 151.37195909832764" height="151.37195909832764" width="244.43135999999998"><g transform="matrix(1,0,0,1,0,93.55394346458452)"><svg viewBox="0 0 244.43135999999998 57.81801563374311" height="57.81801563374311" width="244.43135999999998"><g id="textblocktransform"><svg viewBox="0 0 244.43135999999998 57.81801563374311" height="57.81801563374311" width="244.43135999999998" id="textblock"><g><svg viewBox="0 0 244.43135999999998 57.81801563374311" height="57.81801563374311" width="244.43135999999998"><g transform="matrix(1,0,0,1,0,0)"><svg width="244.43135999999998" viewBox="1.7 -27.15 117.94 27.9" height="57.81801563374311" data-palette-color="#fc6f2f"><path d="M21.7-13.85Q21.7-13.4 21.55-11.3L21.55-11.3 7.9-11.3Q8.1-7.2 9.33-5.58 10.55-3.95 12.8-3.95L12.8-3.95Q14.35-3.95 15.6-4.48 16.85-5 18.3-6.15L18.3-6.15 20.85-2.65Q17.35 0.75 12.45 0.75L12.45 0.75Q7.25 0.75 4.48-2.85 1.7-6.45 1.7-13L1.7-13Q1.7-19.55 4.35-23.35 7-27.15 11.85-27.15L11.85-27.15Q16.5-27.15 19.1-23.78 21.7-20.4 21.7-13.85L21.7-13.85ZM15.7-15.3L15.7-15.65Q15.7-19.4 14.8-21.13 13.9-22.85 11.9-22.85L11.9-22.85Q10.05-22.85 9.08-21.18 8.1-19.5 7.9-15.3L7.9-15.3 15.7-15.3ZM49.65-27.15Q52.3-27.15 53.9-25.1 55.5-23.05 55.5-19.6L55.5-19.6 55.5 0 49.45 0 49.45-18.95Q49.45-20.85 48.95-21.68 48.45-22.5 47.5-22.5L47.5-22.5Q45.55-22.5 43.75-18.8L43.75-18.8 43.75 0 37.75 0 37.75-18.95Q37.75-22.5 35.85-22.5L35.85-22.5Q33.8-22.5 32.05-18.8L32.05-18.8 32.05 0 26 0 26-26.45 31.35-26.45 31.75-23.05Q34.35-27.15 38-27.15L38-27.15Q39.85-27.15 41.2-26 42.55-24.85 43.25-22.75L43.25-22.75Q45.9-27.15 49.65-27.15L49.65-27.15ZM77.9-6.4Q77.9-5.1 78.25-4.48 78.59-3.85 79.4-3.45L79.4-3.45 78.15 0.65Q76.09 0.4 74.87-0.45 73.65-1.3 73.05-3.05L73.05-3.05Q70.75 0.75 66.59 0.75L66.59 0.75Q63.3 0.75 61.35-1.48 59.4-3.7 59.4-7.4L59.4-7.4Q59.4-11.7 62.07-13.95 64.75-16.2 69.84-16.2L69.84-16.2 71.9-16.2 71.9-18.05Q71.9-20.55 71.02-21.58 70.15-22.6 68.2-22.6L68.2-22.6Q65.84-22.6 62.35-21.3L62.35-21.3 60.95-25.3Q62.95-26.2 65.09-26.68 67.25-27.15 69.2-27.15L69.2-27.15Q77.9-27.15 77.9-18.35L77.9-18.35 77.9-6.4ZM68.25-3.7Q70.65-3.7 71.9-7L71.9-7 71.9-12.55 70.45-12.55Q67.9-12.55 66.72-11.4 65.55-10.25 65.55-7.85L65.55-7.85Q65.55-5.8 66.25-4.75 66.95-3.7 68.25-3.7L68.25-3.7ZM91.04-27.15Q95.74-27.15 98.99-24.05L98.99-24.05 96.64-20.7Q95.24-21.7 93.99-22.2 92.74-22.7 91.44-22.7L91.44-22.7Q89.99-22.7 89.17-21.93 88.34-21.15 88.34-19.8L88.34-19.8Q88.34-18.45 89.27-17.63 90.19-16.8 92.99-15.7L92.99-15.7Q96.44-14.35 98.09-12.5 99.74-10.65 99.74-7.55L99.74-7.55Q99.74-3.7 97.04-1.48 94.34 0.75 90.19 0.75L90.19 0.75Q87.49 0.75 85.22-0.23 82.94-1.2 81.24-2.95L81.24-2.95 84.24-6.25Q87.04-3.8 89.94-3.8L89.94-3.8Q91.59-3.8 92.54-4.67 93.49-5.55 93.49-7.1L93.49-7.1Q93.49-8.25 93.09-8.97 92.69-9.7 91.69-10.33 90.69-10.95 88.69-11.7L88.69-11.7Q85.24-13.05 83.77-14.85 82.29-16.65 82.29-19.45L82.29-19.45Q82.29-22.8 84.67-24.98 87.04-27.15 91.04-27.15L91.04-27.15ZM110.94-27.15Q115.64-27.15 118.89-24.05L118.89-24.05 116.54-20.7Q115.14-21.7 113.89-22.2 112.64-22.7 111.34-22.7L111.34-22.7Q109.89-22.7 109.07-21.93 108.24-21.15 108.24-19.8L108.24-19.8Q108.24-18.45 109.17-17.63 110.09-16.8 112.89-15.7L112.89-15.7Q116.34-14.35 117.99-12.5 119.64-10.65 119.64-7.55L119.64-7.55Q119.64-3.7 116.94-1.48 114.24 0.75 110.09 0.75L110.09 0.75Q107.39 0.75 105.12-0.23 102.84-1.2 101.14-2.95L101.14-2.95 104.14-6.25Q106.94-3.8 109.84-3.8L109.84-3.8Q111.49-3.8 112.44-4.67 113.39-5.55 113.39-7.1L113.39-7.1Q113.39-8.25 112.99-8.97 112.59-9.7 111.59-10.33 110.59-10.95 108.59-11.7L108.59-11.7Q105.14-13.05 103.67-14.85 102.19-16.65 102.19-19.45L102.19-19.45Q102.19-22.8 104.57-24.98 106.94-27.15 110.94-27.15L110.94-27.15Z" opacity="1" transform="matrix(1,0,0,1,0,0)" fill="#fc6f2f" class="wordmark-text-0" data-fill-palette-color="primary" id="text-0"></path></svg></g></svg></g></svg></g></svg></g><g transform="matrix(1,0,0,1,78.68325966675093,0)"><svg viewBox="0 0 87.06484066649811 79.90449760583299" height="79.90449760583299" width="87.06484066649811"><g><svg version="1.1" xmlns="http://www.w3.org/2000/svg" xmlns:xlink="http://www.w3.org/1999/xlink" x="0" y="0" viewBox="0.145798715412505 4.19 99.99907378911512 91.775" enable-background="new 0.146 4.189 100 91.775" xml:space="preserve" id="icon-0" width="87.06484066649811" height="79.90449760583299" class="icon-icon-0" data-fill-palette-color="accent"><g fill="#57572a" data-fill-palette-color="accent"><path d="M99.511 38.569L50.993 4.606A1.49 1.49 0 0 0 49.285 4.606L0.779 38.569A1.49 1.49 0 0 0 0.415 40.642L7.021 50.076A1.485 1.485 0 0 0 9.095 50.442L50.146 21.694 91.195 50.442A1.49 1.49 0 0 0 93.269 50.076L99.876 40.642A1.49 1.49 0 0 0 99.511 38.569" fill="#57572a" data-fill-palette-color="accent"></path><path d="M87.456 53.667L50.999 28.137A1.49 1.49 0 0 0 49.292 28.137L12.641 53.803A1.49 1.49 0 0 0 12.006 55.023V94.477C12.006 95.297 12.673 95.965 13.496 95.965H38.998A1.49 1.49 0 0 0 40.487 94.477V60.095H59.807V94.477C59.807 95.297 60.473 95.965 61.296 95.965H86.605C87.428 95.965 88.091 95.297 88.091 94.477V54.886A1.49 1.49 0 0 0 87.456 53.667" fill="#57572a" data-fill-palette-color="accent"></path><path d="M74.213 15.768L85.624 23.758A1.49 1.49 0 0 0 87.166 23.86C87.656 23.604 87.967 23.094 87.967 22.539V5.678C87.967 4.856 87.3 4.19 86.478 4.19H75.065C74.243 4.19 73.577 4.857 73.577 5.678V14.549C73.576 15.033 73.812 15.489 74.213 15.768" fill="#57572a" data-fill-palette-color="accent"></path></g></svg></g></svg></g><g></g></svg></g></svg></g><path d="M0 41.914L0 1 244.431 1 244.431 41.914 239.217 41.914 239.217 6.214 5.214 6.214 5.214 41.914 0 41.914M0 205.286L0 246.2 244.431 246.2 244.431 205.286 239.217 205.286 239.217 240.986 5.214 240.986 5.214 205.286 0 205.286" fill="#fc6f2f" stroke="transparent" data-fill-palette-color="tertiary"></path></svg></g><defs></defs></svg><rect width="244.43135999999998" height="247.2" fill="none" stroke="none" visibility="hidden"></rect></g></svg></g></svg>